<svg xmlns="http://www.w3.org/2000/svg" viewBox="0 0 1200 360">

<g transform="translate(30 20) scale(.625)">


<path fill="#0B1220" d="M82 92h92l82 78 82-78h92v328h-86V214l-88 82-88-82v206H82z"/>
<path fill="#2563EB" d="M82 250h86v170H82z"/>
<path fill="#fff" d="M184 208h144v58c0 54-31 99-72 110-41-11-72-56-72-110v-58zm-42 18h42v42c-23 0-42-19-42-42zm186 0h42c0 23-19 42-42 42v-42zM236 374h40v36h-40zm-34 36h108v30H202z"/>

</g>
<text x="390" y="190" font-family="Arial, Helvetica, sans-serif" font-size="142" font-weight="800" letter-spacing="5">
<tspan fill="#2563EB">MI</tspan><tspan fill="#0B1220"> LIGA</tspan>
</text>
<text x="397" y="255" font-family="Arial, Helvetica, sans-serif" font-size="31" font-weight="600" letter-spacing="12" fill="#0B1220">TU LIGA, TU COMPETENCIA</text>
</svg>